<?xml version="1.0" encoding="utf-8"?>
<!-- Generator: Adobe Illustrator 24.2.0, SVG Export Plug-In . SVG Version: 6.00 Build 0)  -->
<svg version="1.1" id="Layer_1" xmlns="http://www.w3.org/2000/svg" xmlns:xlink="http://www.w3.org/1999/xlink" x="0px" y="0px"
	 width="1000px" height="1000px" viewBox="0 0 1000 1000" style="enable-background:new 0 0 1000 1000;" xml:space="preserve">
<style type="text/css">
	.st0{fill:#5B95CF;}
	.st1{fill:#1E2B5A;}
</style>
<g id="Layer_2">
	<g id="Layer_1-2">
		<path class="st0" d="M348.1,464.9c0.1-3.6-1.6-7.1-4.6-9.2l-117.4-82.6c-2-1.7-4.5-2.7-7.1-2.9h-1.1c-2.6,0.3-5.1,1.3-7.1,2.9
			L92.9,455.5c-3,2.1-4.7,5.5-4.6,9.2v153.7c0,6.1,4.9,11,11,11h176.9c6.1,0,11-5,11-11v-123c0.3-3.7-1.5-7.2-4.6-9.2l-56.6-39.9
			c-2-1.7-4.5-2.7-7.1-2.8h-1.1c-2.6,0.3-5,1.3-7.1,2.8L154,486.2c-3,2.1-4.7,5.6-4.6,9.2v62.3c0,6.1,4.9,11,11,11
			c6.1,0,11-4.9,11-11c0,0,0,0,0,0V501l47-32.9l46.9,32.9v106.8H110.4V470.1l107.9-75.4l107.8,75.5v148.6c0,6.1,4.9,11,11,11
			c6.1,0,11-4.9,11-11V465.2"/>
		<path class="st1" d="M505.1,526.5h-28.8c-1.7-0.1-3.3,0.6-4.3,2c-0.9,1.4-1.3,3-1.3,4.6v2.6c0,1.6,0.4,3.2,1.2,4.6
			c1.1,1.4,2.8,2.2,4.6,2h17.1v27c-2,0.4-4.6,0.7-7.3,1c-3.9,0.4-7.9,0.6-11.8,0.6c-12.8,0-21.9-3.6-26.9-10.8
			c-5.6-9.1-8.4-19.7-7.9-30.4c-0.8-10.8,2.2-21.6,8.4-30.5c5.5-6.4,14.9-9.9,28.1-9.9c4.1-0.1,8.3,0.4,12.3,1.5
			c3.3,1,6.6,2.4,9.7,3.9c1.1,0.7,2.3,1.2,3.6,1.4c1.7-0.2,3.2-1.1,4.1-2.5c1-1.3,1.9-2.7,2.6-4.3c0.7-1.4,1.1-3,1.1-4.6
			c0-3.1-3.3-5.1-5.7-6.4c-4-1.9-8.1-3.2-12.4-4c-5.1-1-10.3-1.5-15.5-1.5c-36.7,0-55.5,19.2-55.5,57.6c0,18.4,4.6,32.7,13.8,42
			c10.7,9.8,24.9,14.8,39.4,13.8c9.1,0.2,18.1-0.6,27-2.5c8-2,12.1-5.6,12.1-10.7v-40.5c0.1-1.9-0.6-3.8-1.9-5.1
			c-1.5-1.2-3.4-1.8-5.3-1.7"/>
		<path class="st1" d="M599.1,561.4v-54.5c0-2.6-1.6-5.6-8.9-5.6h-0.6c-7.3,0-8.9,3-8.9,5.6v55.4c-2.4,2.7-5.2,5-8.4,6.7
			c-3.1,1.7-6.6,2.6-10.1,2.6c-3.9,0.3-7.8-0.9-10.9-3.4c-2.5-2.4-3.8-5.7-3.6-9.2v-52.2c0-2.6-1.6-5.6-8.9-5.6h-0.5
			c-7.3,0-8.9,3-8.9,5.6v53.2c-0.4,7.5,2.5,14.7,7.9,19.9c5.9,5,13.5,7.6,21.2,7.2c5.1,0,10.1-1.1,14.7-3.2c3.6-1.7,6.8-3.8,9.8-6.4
			c0.3,1.7,0.7,3.4,1.3,5.1c0.9,2.2,3.1,3.7,5.5,3.7c2.2,0,4.3-0.3,6.4-0.8c4.1-1.1,4.6-3.5,4.6-4.9c-0.2-1.8-0.5-3.6-1-5.4
			c-0.7-4.6-1-9.3-0.9-14"/>
		<path class="st1" d="M655,516.2c11.3,0,16.9,6.4,17.5,19.8H634c1.7-13.3,8.4-19.8,20.6-19.8 M655.1,500.7
			c-11.3-0.8-22.3,3.4-30.3,11.3c-7.4,9.1-11.1,20.7-10.3,32.5c-3,20.5,11.1,39.6,31.7,42.6c3.6,0.5,7.3,0.5,10.9,0
			c5.1,0,10.1-0.6,15.1-1.7c4.1-0.8,8-2.1,11.8-4c2.2-1.3,5.2-3.3,5.2-6.4c-0.1-1.3-0.5-2.6-1.2-3.8c-0.7-1.3-1.6-2.6-2.6-3.8
			c-1.3-2.2-4.1-3-6.3-1.7c0,0,0,0-0.1,0l0,0l-1.4,0.6c-3,1.5-6,2.7-9.2,3.7c-3.6,1-7.4,1.5-11.1,1.4c-6.1,0.5-12.1-1.4-16.8-5.2
			c-3.7-4.1-6-9.4-6.4-15h50c1.4-0.1,2.8-0.7,3.8-1.7c1-0.9,1.9-2,2.7-3.1c0.8-1.1,1.3-2.3,1.4-3.6c0.7-11.2-2.5-22.3-9.2-31.3
			c-6.9-7.6-16.9-11.7-27.2-11"/>
		<path class="st1" d="M750.5,540.8c-5.3-2.7-10.8-4.8-16.6-6.4c-3.2-0.6-6.3-2.1-8.9-4.1c-1.8-1.9-2.7-4.4-2.6-7
			c0-2.2,1.2-4.1,3.1-5.2c2.8-1.6,6-2.3,9.2-2.2c2.2,0,4.3,0.3,6.4,0.8c1.7,0.4,3.4,1.1,5.1,1.8c2.4,1.2,2.7,1.3,3.3,1.3
			c1.6-0.2,3.1-1,4-2.3c1.1-1.2,1.9-2.6,2.6-4.1c0.6-1.3,1-2.7,1-4.1c0-3.1-3.3-4.6-4.6-5.2c-2.8-1.3-5.7-2.1-8.7-2.6
			c-3.6-0.6-7.3-1-10.9-1c-5.2-0.1-10.3,1-15.1,3c-4.3,1.9-7.9,4.9-10.6,8.7c-2.6,3.8-3.9,8.2-3.9,12.8c-0.1,3.8,0.7,7.7,2.2,11.2
			c1.9,3.5,4.8,6.3,8.3,8.1c4.5,2.6,9.4,4.6,14.5,5.8c3.2,0.8,6.2,2,9.2,3.4c1.7,0.8,3.1,2,4.2,3.5c0.8,1.4,1.2,3,1.2,4.6
			c0,4.6-1.5,10.2-13.8,10.2c-3.1,0.1-6.2-0.4-9.2-1.4c-2.6-1-5-2.2-7.4-3.6c-1.8-1.6-4.6-1.5-6.3,0.3c-0.2,0.2-0.4,0.5-0.6,0.8
			c-1,1.1-1.9,2.4-2.6,3.8c-0.7,1.2-1.1,2.5-1.2,3.8c0,2.7,2.6,4.6,4.6,6.1c3.2,1.9,6.6,3.4,10.2,4.3c4.4,1.2,9,1.7,13.5,1.7
			c5.4,0.1,10.8-1.1,15.7-3.4c4.6-2,8.5-5.2,11.4-9.2c2.9-4,4.4-8.8,4.4-13.8c0.2-4.3-0.8-8.6-2.7-12.5c-2.1-3.6-5.1-6.4-8.8-8.3"/>
		<path class="st1" d="M814.7,571.1c-0.9,0-1.8,0.1-2.7,0.4c-1.5,0.1-3.1,0.1-4.6,0c-1.7,0-3.4-0.6-4.6-1.8
			c-1.5-2.1-2.2-4.7-1.8-7.3v-45.3h11.6c1.8,0.2,3.5-0.6,4.6-2c0.9-1.4,1.3-3.1,1.2-4.8v-1.9c0.1-1.6-0.3-3.2-1.2-4.6
			c-1.1-1.4-2.8-2.2-4.6-2h-11.6V488c0.1-1.7-0.8-3.4-2.2-4.4c-1.5-0.9-3.2-1.3-5-1.2h-1.6c-6.4,0-7.4,3.9-7.5,5.3l-1.7,14.1h-6.4
			c-1.7-0.1-3.3,0.7-4.4,2c-0.8,1.4-1.3,3-1.2,4.6v1.9c-0.1,1.7,0.3,3.4,1.2,4.8c1,1.3,2.7,2.1,4.4,2h6v46.6
			c-0.7,7,2.1,13.9,7.4,18.4c4.7,3.4,10.3,5.1,16,5.1c3.5,0,14.1,0,14.1-6.8c0-1.8-0.4-3.5-1.1-5.1c-1.2-3.5-3.1-4.2-4.6-4.2"/>
		<path class="st1" d="M897.7,501.3h-0.6c-1.8,0-7.5,0-8.8,3.8l-16.4,41.6c-0.6,1.5-1.3,3.3-2.1,5.4l-1.5,4.2
			c-1.2-3.9-2.4-7.2-3.4-9.6l-16.8-41.6c-1.6-3.8-6.9-3.8-8.6-3.8h-1.3c-2.2-0.1-4.3,0.1-6.4,0.8c-1.8,0.5-3.1,2.1-3.2,3.9
			c0,0.5,0,1.1,0,1.6v0.9l28.6,71.2l-13.5,30.4c-0.5,1-0.8,2.1-0.9,3.3c0,2.2,1.3,4.6,7.6,4.6h2.5c5.1,0,8.4-1.5,9.9-4.6l42.3-104.9
			c0.3-0.9,0.5-1.8,0.5-2.8c0-3.2-2.9-4.6-8.6-4.6"/>
	</g>
</g>
</svg>
